<svg id="Layer_1" data-name="Layer 1" xmlns="http://www.w3.org/2000/svg" viewBox="0 0 2030.94 2017.03"><defs><style>.cls-1{fill:#ec4646;}.cls-2{fill:#eaeaea;}.cls-3{opacity:0.1;}.cls-4{fill:#5b5b5b;}.cls-5{fill:#252525;}.cls-6{fill:#51c2d5;}.cls-7{fill:#c5f9d3;}</style></defs><path class="cls-1" d="M1019.62,1835.37c-458.68,0-831.83-373.16-831.83-831.83s373.15-831.83,831.83-831.83,831.82,373.15,831.82,831.83S1478.29,1835.37,1019.62,1835.37Zm0-1586.88c-416.34,0-755,338.71-755,755.05s338.71,755.05,755.05,755.05,755-338.72,755-755S1436,248.49,1019.62,248.49Z" transform="translate(-8.53 -15.49)"/><path class="cls-2" d="M1533.91,170.42,1885.66,1336c-201.73,1.55-896,12.32-1416.34,89.08A127.57,127.57,0,0,0,515.16,1286l-95.3-315.78a127.56,127.56,0,0,0-115.12-90.49C780.64,655.84,1365,280.73,1533.91,170.42Z" transform="translate(-8.53 -15.49)"/><g class="cls-3"><path class="cls-4" d="M1972.24,674c48.79,161.67,37.68,316.9-19.79,402.51l80.45,266.58a91.2,91.2,0,1,1-174.62,52.7l-17.91-59.35c-245.81,2.79-884.53,16.86-1371,88.62l121.84,403.76a76.24,76.24,0,0,0,10.8,22.09l43.19,60.65c35.13,49.35,1,117.91-59.49,119.67l-42.54,1.23a125.27,125.27,0,0,1-123.54-89L276,1467.6a127.52,127.52,0,0,1-75.35-65.46,60.68,60.68,0,0,1-20.53,1.31l-58-5.94a60.79,60.79,0,0,1-52-42.94l-29.47-97.63Z" transform="translate(-8.53 -15.49)"/></g><path class="cls-5" d="M348.29,1011.36a40.21,40.21,0,0,1-26.88,50.11l-91,27.46a40.21,40.21,0,1,1-23.24-77l91-27.46A40.19,40.19,0,0,1,348.29,1011.36Z" transform="translate(-8.53 -15.49)"/><path class="cls-5" d="M390.53,1151.33a40.17,40.17,0,0,1-26.88,50.11l-91,27.46a40.21,40.21,0,1,1-23.23-77l91-27.45A40.19,40.19,0,0,1,390.53,1151.33Z" transform="translate(-8.53 -15.49)"/><path class="cls-5" d="M432.77,1291.31a40.19,40.19,0,0,1-26.88,50.11l-91,27.45a40.2,40.2,0,1,1-23.23-77l91-27.46A40.18,40.18,0,0,1,432.77,1291.31Z" transform="translate(-8.53 -15.49)"/><path class="cls-6" d="M304.74,879.72l-.07,0A125.35,125.35,0,0,0,261,885l-77.82,23.48a127.52,127.52,0,0,0-89.56,139,133.5,133.5,0,0,0,4.33,19.93l95.3,315.78a133.37,133.37,0,0,0,7.41,19,127.54,127.54,0,0,0,151.48,66.23l77.83-23.49a125.27,125.27,0,0,0,39.31-19.8l.07,0A127.57,127.57,0,0,0,515.16,1286l-95.3-315.78A127.56,127.56,0,0,0,304.74,879.72Zm125,442.21a40.19,40.19,0,0,1-23.83,19.49l-91,27.45a40.2,40.2,0,1,1-23.23-77l91-27.46a40.22,40.22,0,0,1,47.06,57.5Zm-42.24-140a40.17,40.17,0,0,1-23.83,19.48l-91,27.46a40.21,40.21,0,1,1-23.23-77l91-27.45a40.22,40.22,0,0,1,47.06,57.5Zm-42.25-140a40.14,40.14,0,0,1-23.82,19.49l-91,27.46a40.21,40.21,0,1,1-23.24-77l91-27.46a40.21,40.21,0,0,1,47.05,57.5Z" transform="translate(-8.53 -15.49)"/><path class="cls-7" d="M1972.24,674c48.79,161.67,37.68,316.9-19.79,402.51L1733.08,349.63C1828.32,389.15,1923.45,512.33,1972.24,674Z" transform="translate(-8.53 -15.49)"/><path class="cls-5" d="M193.22,1383.15a133.37,133.37,0,0,0,7.41,19,60.68,60.68,0,0,1-20.53,1.31l-58-5.94a60.79,60.79,0,0,1-52-42.94L11.13,1159.31a60.81,60.81,0,0,1,19.61-64.57l45-37a60.62,60.62,0,0,1,17.82-10.27,133.5,133.5,0,0,0,4.33,19.93Z" transform="translate(-8.53 -15.49)"/><path class="cls-5" d="M585.66,2031.23l-42.54,1.23a125.27,125.27,0,0,1-123.54-89L276,1467.6a126.58,126.58,0,0,0,76.13.77l77.83-23.49a125.27,125.27,0,0,0,39.31-19.8l.07,0,121.84,403.76a76.24,76.24,0,0,0,10.8,22.09l43.19,60.65C680.28,1960.91,646.14,2029.47,585.66,2031.23Z" transform="translate(-8.53 -15.49)"/><rect class="cls-6" x="1664.24" y="-9.9" width="182.41" height="1498.65" rx="80.42" transform="translate(-147.3 523.22) rotate(-16.79)"/><polygon class="cls-1" points="1467.05 1657.98 416.75 425 475.2 375.21 1525.52 1608.18 1467.05 1657.98"/></svg>