<svg xmlns="http://www.w3.org/2000/svg" xmlns:xlink="http://www.w3.org/1999/xlink" width="23" height="23" preserveAspectRatio="xMidYMid meet" viewBox="0 0 1536 1408" style="-ms-transform: rotate(360deg); -webkit-transform: rotate(360deg); transform: rotate(360deg);"><path d="M352 1152v128H0v-128h352zm352-128q26 0 45 19t19 45v256q0 26-19 45t-45 19H448q-26 0-45-19t-19-45v-256q0-26 19-45t45-19h256zm160-384v128H0V640h864zM224 128v128H0V128h224zm1312 1024v128H800v-128h736zM576 0q26 0 45 19t19 45v256q0 26-19 45t-45 19H320q-26 0-45-19t-19-45V64q0-26 19-45t45-19h256zm640 512q26 0 45 19t19 45v256q0 26-19 45t-45 19H960q-26 0-45-19t-19-45V576q0-26 19-45t45-19h256zm320 128v128h-224V640h224zm0-512v128H672V128h864z" fill="#34495e"/><rect x="0" y="0" width="1536" height="1408" fill="rgba(0, 0, 0, 0)" /></svg>