<svg id="Layer_1" data-name="Layer 1" xmlns="http://www.w3.org/2000/svg" viewBox="0 0 255.14 203.16"><defs><style>.cls-1{fill:none;stroke:#ec4646;stroke-miterlimit:10;stroke-width:6px;}.cls-2{fill:#eaeaea;}.cls-3{opacity:0.1;}.cls-4{fill:#5b5b5b;}.cls-5{fill:#252525;}.cls-6{fill:#ff4646;}.cls-7{fill:#ffcc29;}</style></defs><circle class="cls-1" cx="127.34" cy="73.11" r="58.73"/><path class="cls-2" d="M165.84,37.86l26,86.27c-14.93.12-66.33.91-104.84,6.6a9.46,9.46,0,0,0,3.39-10.3L83.38,97.06a9.44,9.44,0,0,0-8.52-6.7C110.08,73.79,153.34,46,165.84,37.86Z" transform="translate(-0.43 -26.42)"/><g class="cls-3"><path class="cls-4" d="M198.29,75.13c3.61,12,2.79,23.46-1.47,29.8l6,19.73a6.75,6.75,0,1,1-12.93,3.9l-1.33-4.39c-18.19.2-65.47,1.24-101.48,6.56l9,29.88a5.55,5.55,0,0,0,.8,1.64l3.2,4.49a5.6,5.6,0,0,1-4.41,8.85l-3.15.1a9.27,9.27,0,0,1-9.14-6.59L72.73,133.87A9.41,9.41,0,0,1,67.15,129a4.5,4.5,0,0,1-1.52.1l-4.29-.44a4.5,4.5,0,0,1-3.85-3.18l-2.18-7.23Z" transform="translate(-0.43 -26.42)"/></g><path class="cls-5" d="M78.08,100.1a3,3,0,0,1-.22,2.27,3,3,0,0,1-1.77,1.44l-6.73,2a3,3,0,0,1-3.48-4.26,2.9,2.9,0,0,1,1.76-1.44l6.73-2A3,3,0,0,1,78.08,100.1Z" transform="translate(-0.43 -26.42)"/><path class="cls-5" d="M81.21,110.46a3,3,0,0,1-.23,2.27,2.9,2.9,0,0,1-1.76,1.44l-6.73,2a3,3,0,1,1-1.72-5.7l6.73-2A3,3,0,0,1,81.21,110.46Z" transform="translate(-0.43 -26.42)"/><path class="cls-5" d="M84.34,120.83a3,3,0,0,1-.23,2.26,3,3,0,0,1-1.76,1.44l-6.74,2a3,3,0,0,1-1.72-5.7l6.74-2A3,3,0,0,1,84.34,120.83Z" transform="translate(-0.43 -26.42)"/><path class="cls-6" d="M74.86,90.36h0a9.24,9.24,0,0,0-3.23.39l-5.76,1.74a9.44,9.44,0,0,0-6.63,10.29,9.67,9.67,0,0,0,.32,1.47l7,23.37a10.32,10.32,0,0,0,.55,1.41,9.46,9.46,0,0,0,11.22,4.9l5.76-1.74A9.36,9.36,0,0,0,87,130.73h0a9.46,9.46,0,0,0,3.39-10.3L83.38,97.06A9.44,9.44,0,0,0,74.86,90.36Zm9.25,32.73a3,3,0,0,1-1.76,1.44l-6.74,2a3,3,0,0,1-1.72-5.7l6.74-2a3,3,0,0,1,3.48,4.25ZM81,112.73a2.9,2.9,0,0,1-1.76,1.44l-6.73,2a3,3,0,1,1-1.72-5.7l6.73-2A3,3,0,0,1,81,112.73Zm-3.12-10.36a3,3,0,0,1-1.77,1.44l-6.73,2a3,3,0,0,1-3.48-4.26,2.9,2.9,0,0,1,1.76-1.44l6.73-2a3,3,0,0,1,3.49,4.26Z" transform="translate(-0.43 -26.42)"/><path class="cls-7" d="M198.29,75.13c3.61,12,2.79,23.46-1.47,29.8L180.58,51.12C187.63,54.05,194.67,63.17,198.29,75.13Z" transform="translate(-0.43 -26.42)"/><path class="cls-5" d="M66.6,127.62a10.32,10.32,0,0,0,.55,1.41,4.5,4.5,0,0,1-1.52.1l-4.29-.44a4.5,4.5,0,0,1-3.85-3.18l-4.36-14.45a4.48,4.48,0,0,1,1.45-4.78l3.33-2.74a4.31,4.31,0,0,1,1.32-.76,9.67,9.67,0,0,0,.32,1.47Z" transform="translate(-0.43 -26.42)"/><path class="cls-5" d="M95.65,175.59l-3.15.1a9.27,9.27,0,0,1-9.14-6.59L72.73,133.87a9.34,9.34,0,0,0,5.64.06l5.76-1.74A9.36,9.36,0,0,0,87,130.73h0l9,29.88a5.55,5.55,0,0,0,.8,1.64l3.2,4.49A5.6,5.6,0,0,1,95.65,175.59Z" transform="translate(-0.43 -26.42)"/><rect class="cls-6" x="175.49" y="24.51" width="13.5" height="110.93" rx="6.06" transform="translate(-15.77 29.64) rotate(-16.79)"/><line class="cls-1" x1="85.51" y1="29.59" x2="163.26" y2="120.85"/><path d="M11.92,228.24a1.22,1.22,0,0,1-.4.94,1.28,1.28,0,0,1-.94.4h0a1.28,1.28,0,0,1-.94-.4,1.22,1.22,0,0,1-.4-.94V218a2.92,2.92,0,0,0-.88-2.14A2.94,2.94,0,0,0,6.17,215a3,3,0,0,0-3,3v10.26a1.22,1.22,0,0,1-.4.94,1.26,1.26,0,0,1-.94.4h0a1.28,1.28,0,0,1-.94-.4,1.22,1.22,0,0,1-.4-.94V218a5.51,5.51,0,0,1,1.69-4.06,5.52,5.52,0,0,1,4.05-1.68,5.54,5.54,0,0,1,4.06,1.68A5.51,5.51,0,0,1,11.92,218Z" transform="translate(-0.43 -26.42)"/><path d="M20.31,216.79a6.4,6.4,0,1,1-4.52,10.92,6.4,6.4,0,0,1,4.52-10.92Zm0,2.75a3.68,3.68,0,1,0,2.6,6.28,3.68,3.68,0,0,0-2.6-6.28Z" transform="translate(-0.43 -26.42)"/><path d="M47,228.24a1.25,1.25,0,0,1-.4.94,1.29,1.29,0,0,1-.95.4h0a1.26,1.26,0,0,1-.94-.4,1.22,1.22,0,0,1-.4-.94v-5h-6v5a1.25,1.25,0,0,1-.4.94,1.29,1.29,0,0,1-1,.4h0a1.26,1.26,0,0,1-.94-.4,1.22,1.22,0,0,1-.4-.94V218A5.75,5.75,0,0,1,47,218Zm-2.72-7.66V218a3,3,0,1,0-6,0v2.6Z" transform="translate(-0.43 -26.42)"/><path d="M52,228.24a1.25,1.25,0,0,1-.4.94,1.29,1.29,0,0,1-1,.4h0a1.26,1.26,0,0,1-.94-.4,1.22,1.22,0,0,1-.4-.94v-6.07a5.37,5.37,0,1,1,10.73,0v6.07a1.37,1.37,0,0,1-1.34,1.34h0a1.31,1.31,0,0,1-1-.4,1.25,1.25,0,0,1-.4-.94v-6.07a2.65,2.65,0,1,0-5.29,0Z" transform="translate(-0.43 -26.42)"/><path d="M65,228.24a1.22,1.22,0,0,1-.4.94,1.26,1.26,0,0,1-.94.4h0a1.29,1.29,0,0,1-1-.4,1.25,1.25,0,0,1-.4-.94v-6.07a5.37,5.37,0,0,1,10.74,0v6.07a1.25,1.25,0,0,1-.4.94,1.24,1.24,0,0,1-.95.4h0a1.27,1.27,0,0,1-.95-.4,1.22,1.22,0,0,1-.4-.94v-6.07a2.58,2.58,0,0,0-.77-1.88,2.66,2.66,0,0,0-3.76,0,2.58,2.58,0,0,0-.77,1.88Z" transform="translate(-0.43 -26.42)"/><path d="M81.28,216.79a6.42,6.42,0,1,1-4.52,1.88A6.19,6.19,0,0,1,81.28,216.79Zm0,2.75a3.55,3.55,0,0,0-2.61,1.07,3.69,3.69,0,0,0,2.61,6.29A3.69,3.69,0,0,0,85,223.22a3.56,3.56,0,0,0-1.08-2.61A3.5,3.5,0,0,0,81.28,219.54Z" transform="translate(-0.43 -26.42)"/><path d="M92.28,224.22a2.65,2.65,0,1,0,5.29,0v-6.07a1.37,1.37,0,0,1,1.36-1.36h0a1.25,1.25,0,0,1,.94.4,1.31,1.31,0,0,1,.4,1v6.07a5.37,5.37,0,0,1-10.73,0v-6.07a1.37,1.37,0,0,1,1.34-1.36h0a1.32,1.32,0,0,1,.95.4,1.35,1.35,0,0,1,.4,1Z" transform="translate(-0.43 -26.42)"/><path d="M105.23,228.24a1.22,1.22,0,0,1-.4.94,1.26,1.26,0,0,1-.94.4h0a1.29,1.29,0,0,1-1-.4,1.25,1.25,0,0,1-.4-.94v-6.07a5.37,5.37,0,0,1,10.74,0v6.07a1.25,1.25,0,0,1-.4.94,1.24,1.24,0,0,1-.95.4h0a1.27,1.27,0,0,1-.95-.4,1.22,1.22,0,0,1-.4-.94v-6.07a2.58,2.58,0,0,0-.77-1.88,2.55,2.55,0,0,0-1.87-.78,2.65,2.65,0,0,0-2.66,2.66Z" transform="translate(-0.43 -26.42)"/><path d="M123.46,217.09a1.23,1.23,0,0,1,.94,1.29v.06a1.25,1.25,0,0,1-.54,1.07,1.32,1.32,0,0,1-.78.27,1.33,1.33,0,0,1-.43-.07,3.85,3.85,0,0,0-1.12-.17,3.55,3.55,0,0,0-2.61,1.07,3.69,3.69,0,0,0,2.61,6.29,3.55,3.55,0,0,0,1.12-.18,1.23,1.23,0,0,1,.42-.07,1.32,1.32,0,0,1,.79.27,1.28,1.28,0,0,1,.54,1.09,1.23,1.23,0,0,1-.94,1.28,6.27,6.27,0,0,1-1.93.29,6.4,6.4,0,0,1,0-12.79A6.28,6.28,0,0,1,123.46,217.09Z" transform="translate(-0.43 -26.42)"/><path d="M138.16,220.52a1.3,1.3,0,0,1,0,1,1.25,1.25,0,0,1-.71.75l-4.08,1.84-3.69,1.68a3.15,3.15,0,0,0,2.63,1.07,3.61,3.61,0,0,0,2.15-.7,3.68,3.68,0,0,0,1.33-1.78,1.24,1.24,0,0,1,1.28-.91,1.27,1.27,0,0,1,1.1.58,1.24,1.24,0,0,1,.26.74,1.36,1.36,0,0,1-.09.48,6.1,6.1,0,0,1-2.3,3.06,6.4,6.4,0,1,1-.24-10.53A6.27,6.27,0,0,1,138.16,220.52Zm-5.81-1a3.64,3.64,0,0,0-3.67,3.68v.08l6.2-2.79A3.12,3.12,0,0,0,132.35,219.54Z" transform="translate(-0.43 -26.42)"/><path d="M143.19,228.24a1.25,1.25,0,0,1-.4.94,1.29,1.29,0,0,1-.95.4h0a1.26,1.26,0,0,1-.94-.4,1.22,1.22,0,0,1-.4-.94v-6.11a5.34,5.34,0,0,1,5.34-5.34,4.69,4.69,0,0,1,4,1.76,4.67,4.67,0,0,1,4-1.76,5.34,5.34,0,0,1,5.34,5.34v6.11a1.33,1.33,0,0,1-1.34,1.34h0a1.37,1.37,0,0,1-1.34-1.34v-6.11a2.63,2.63,0,0,0-5.26,0v6.11a1.35,1.35,0,0,1-1.34,1.34h0a1.31,1.31,0,0,1-1-.4,1.24,1.24,0,0,1-.39-.94v-6.11a2.62,2.62,0,1,0-5.24,0Z" transform="translate(-0.43 -26.42)"/><path d="M173.19,220.52a1.31,1.31,0,0,1,.13.57,1.55,1.55,0,0,1-.08.47,1.3,1.3,0,0,1-.72.75l-4.08,1.84-3.69,1.68a3.17,3.17,0,0,0,2.64,1.07,3.68,3.68,0,0,0,3.47-2.48,1.25,1.25,0,0,1,1.29-.91,1.28,1.28,0,0,1,1.1.58,1.22,1.22,0,0,1,.25.74,1.36,1.36,0,0,1-.09.48,6,6,0,0,1-2.3,3.06,6.37,6.37,0,1,1,2.08-7.85Zm-5.8-1a3.52,3.52,0,0,0-2.61,1.07,3.59,3.59,0,0,0-1.07,2.61v.08l6.21-2.79A3.14,3.14,0,0,0,167.39,219.54Z" transform="translate(-0.43 -26.42)"/><path d="M178.22,228.24a1.22,1.22,0,0,1-.4.94,1.28,1.28,0,0,1-.94.4h0a1.28,1.28,0,0,1-.94-.4,1.22,1.22,0,0,1-.4-.94v-6.07a5.37,5.37,0,1,1,10.73,0v6.07a1.37,1.37,0,0,1-1.34,1.34h0a1.31,1.31,0,0,1-1-.4,1.25,1.25,0,0,1-.4-.94v-6.07a2.63,2.63,0,0,0-2.64-2.66,2.65,2.65,0,0,0-2.65,2.66Z" transform="translate(-0.43 -26.42)"/><path d="M189.83,212.24a1.29,1.29,0,0,1,.94.39,1.31,1.31,0,0,1,.4,1v3.2h1.67a1.37,1.37,0,0,1,1.34,1.36v0a1.22,1.22,0,0,1-.4.94,1.26,1.26,0,0,1-.94.4h-1.67v6.59a.74.74,0,0,0,.23.54.72.72,0,0,0,.55.22h.89a1.37,1.37,0,0,1,1.34,1.36v0a1.22,1.22,0,0,1-.4.94,1.26,1.26,0,0,1-.94.4H192a3.5,3.5,0,0,1-3.5-3.48V213.59a1.35,1.35,0,0,1,.4-1,1.31,1.31,0,0,1,1-.39Z" transform="translate(-0.43 -26.42)"/><path d="M199.18,219.51a1.08,1.08,0,0,0-.82.34,1.11,1.11,0,0,0-.34.82,1.08,1.08,0,0,0,.65,1,15.36,15.36,0,0,0,1.85.55,4.7,4.7,0,0,1,2,1,3.3,3.3,0,0,1,.92,2.5,3.88,3.88,0,0,1-3.88,3.87h-2.89a1.29,1.29,0,0,1-.95-.4,1.25,1.25,0,0,1-.4-.94v0a1.35,1.35,0,0,1,.4-1,1.32,1.32,0,0,1,.95-.4h3a1.11,1.11,0,0,0,.82-.33,1.09,1.09,0,0,0,.34-.82,1,1,0,0,0-.63-.92c-.12-.06-.74-.24-1.87-.56a4.6,4.6,0,0,1-2-1,3.38,3.38,0,0,1-.93-2.54,3.69,3.69,0,0,1,1.14-2.73,3.74,3.74,0,0,1,2.74-1.15h2a1.37,1.37,0,0,1,1.36,1.36v0a1.25,1.25,0,0,1-.4.94,1.31,1.31,0,0,1-1,.4Z" transform="translate(-0.43 -26.42)"/><path d="M223.45,218.51a5.58,5.58,0,0,1-1.33,3.69,5.35,5.35,0,0,1-3.05,1.91v4.13a1.22,1.22,0,0,1-.4.94,1.28,1.28,0,0,1-.94.4h0a1.28,1.28,0,0,1-.94-.4,1.22,1.22,0,0,1-.4-.94v-4.13a5.35,5.35,0,0,1-3-1.91,5.58,5.58,0,0,1-1.33-3.69v-4.92a1.33,1.33,0,0,1,1.34-1.35h0a1.33,1.33,0,0,1,1.34,1.35v4.92a3,3,0,1,0,6,0v-4.92a1.35,1.35,0,0,1,.4-1,1.33,1.33,0,0,1,1-.39h0a1.29,1.29,0,0,1,.94.39,1.31,1.31,0,0,1,.4,1Z" transform="translate(-0.43 -26.42)"/><path d="M237.54,220.52a1.31,1.31,0,0,1,.13.57,1.55,1.55,0,0,1-.08.47,1.31,1.31,0,0,1-.71.75l-4.09,1.84-3.69,1.68a3.17,3.17,0,0,0,2.64,1.07,3.68,3.68,0,0,0,3.47-2.48,1.25,1.25,0,0,1,1.29-.91,1.28,1.28,0,0,1,1.1.58,1.22,1.22,0,0,1,.25.74,1.36,1.36,0,0,1-.09.48,6.08,6.08,0,0,1-2.29,3.06,6.38,6.38,0,1,1,2.07-7.85Zm-5.8-1a3.52,3.52,0,0,0-2.61,1.07,3.59,3.59,0,0,0-1.07,2.61v.08l6.21-2.79A3.12,3.12,0,0,0,231.74,219.54Z" transform="translate(-0.43 -26.42)"/><path d="M241.23,212.24a1.35,1.35,0,0,1,1.34,1.35v3.2h1.66a1.32,1.32,0,0,1,1,.4,1.35,1.35,0,0,1,.4,1v0a1.25,1.25,0,0,1-.4.94,1.29,1.29,0,0,1-1,.4h-1.66v6.59a.73.73,0,0,0,.22.54.75.75,0,0,0,.56.22h.88a1.32,1.32,0,0,1,1,.4,1.35,1.35,0,0,1,.4,1v0a1.25,1.25,0,0,1-.4.94,1.29,1.29,0,0,1-1,.4h-.88a3.48,3.48,0,0,1-3.5-3.48V213.59a1.35,1.35,0,0,1,1.34-1.35Z" transform="translate(-0.43 -26.42)"/><path d="M248.69,229.58a1.55,1.55,0,0,1-1.56-1.55,1.47,1.47,0,0,1,.46-1.09,1.5,1.5,0,0,1,1.1-.45,1.55,1.55,0,0,1,0,3.09Zm1.35-9.41-.39,5h-1.94l-.39-5v-6.58a1.35,1.35,0,0,1,1.34-1.35h0a1.35,1.35,0,0,1,1.34,1.35Z" transform="translate(-0.43 -26.42)"/><path d="M254,229.58a1.55,1.55,0,0,1-1.55-1.55,1.47,1.47,0,0,1,.46-1.09,1.5,1.5,0,0,1,1.09-.45,1.48,1.48,0,0,1,1.09.45,1.46,1.46,0,0,1,.47,1.09,1.57,1.57,0,0,1-1.56,1.55Zm1.36-9.41-.39,5H253l-.39-5v-6.58a1.35,1.35,0,0,1,1.34-1.35h0a1.35,1.35,0,0,1,1.34,1.35Z" transform="translate(-0.43 -26.42)"/></svg>