<svg id="Layer_1" data-name="Layer 1" xmlns="http://www.w3.org/2000/svg" viewBox="0 0 246.26 16.74"><defs><style>.cls-1{fill:#000005;}</style></defs><path class="cls-1" d="M16,135.07a1.18,1.18,0,0,1-.39.91,1.23,1.23,0,0,1-.91.39h0a1.24,1.24,0,0,1-.91-.39,1.18,1.18,0,0,1-.39-.91v-9.9a2.89,2.89,0,0,0-2.92-2.92,2.81,2.81,0,0,0-2.07.85,2.85,2.85,0,0,0-.85,2.07v9.9a1.17,1.17,0,0,1-.38.91,1.24,1.24,0,0,1-.91.39h0a1.23,1.23,0,0,1-.91-.39,1.18,1.18,0,0,1-.39-.91v-9.9a5.33,5.33,0,0,1,1.63-3.92,5.34,5.34,0,0,1,3.91-1.62,5.34,5.34,0,0,1,3.92,1.62A5.33,5.33,0,0,1,16,125.17Z" transform="translate(-4.87 -119.63)"/><path class="cls-1" d="M24.06,124a6.18,6.18,0,1,1-4.36,10.54A6.18,6.18,0,0,1,24.06,124Zm0,2.65a3.53,3.53,0,0,0-3.55,3.56,3.47,3.47,0,0,0,1,2.51,3.56,3.56,0,1,0,2.52-6.07Z" transform="translate(-4.87 -119.63)"/><path class="cls-1" d="M49.8,135.07a1.18,1.18,0,0,1-.39.91,1.24,1.24,0,0,1-.91.39h0a1.23,1.23,0,0,1-.91-.39,1.18,1.18,0,0,1-.39-.91v-4.78H41.33v4.78A1.21,1.21,0,0,1,41,136a1.26,1.26,0,0,1-.92.39h0a1.24,1.24,0,0,1-.91-.39,1.17,1.17,0,0,1-.38-.91v-9.9a5.55,5.55,0,0,1,11.09,0Zm-2.63-7.39v-2.51a2.92,2.92,0,1,0-5.84,0v2.51Z" transform="translate(-4.87 -119.63)"/><path class="cls-1" d="M54.67,135.07a1.18,1.18,0,0,1-.39.91,1.23,1.23,0,0,1-.91.39h0a1.24,1.24,0,0,1-.91-.39,1.17,1.17,0,0,1-.38-.91v-5.86a5.18,5.18,0,0,1,10.36,0v5.86A1.18,1.18,0,0,1,62,136a1.2,1.2,0,0,1-.91.39h0a1.23,1.23,0,0,1-.92-.39,1.18,1.18,0,0,1-.39-.91v-5.86A2.49,2.49,0,0,0,59,127.4a2.57,2.57,0,0,0-3.63,0,2.49,2.49,0,0,0-.74,1.81Z" transform="translate(-4.87 -119.63)"/><path class="cls-1" d="M67.17,135.07a1.17,1.17,0,0,1-.38.91,1.24,1.24,0,0,1-.91.39h0a1.26,1.26,0,0,1-.92-.39,1.21,1.21,0,0,1-.38-.91v-5.86a5.18,5.18,0,0,1,10.36,0v5.86a1.33,1.33,0,0,1-1.3,1.3h0a1.26,1.26,0,0,1-.92-.39,1.17,1.17,0,0,1-.38-.91v-5.86a2.56,2.56,0,1,0-5.12,0Z" transform="translate(-4.87 -119.63)"/><path class="cls-1" d="M82.9,124a6.2,6.2,0,1,1-4.36,1.82A5.93,5.93,0,0,1,82.9,124Zm0,2.65a3.55,3.55,0,1,0,2.51,1A3.43,3.43,0,0,0,82.9,126.67Z" transform="translate(-4.87 -119.63)"/><path class="cls-1" d="M93.52,131.19a2.53,2.53,0,0,0,2.56,2.55,2.53,2.53,0,0,0,2.55-2.55v-5.86a1.25,1.25,0,0,1,.39-.92,1.23,1.23,0,0,1,.92-.39h0a1.2,1.2,0,0,1,.91.39,1.25,1.25,0,0,1,.39.92v5.86a5.18,5.18,0,0,1-10.36,0v-5.86A1.31,1.31,0,0,1,92.19,124h0a1.26,1.26,0,0,1,.92.39,1.28,1.28,0,0,1,.38.92Z" transform="translate(-4.87 -119.63)"/><path class="cls-1" d="M106,135.07a1.17,1.17,0,0,1-.38.91,1.24,1.24,0,0,1-.91.39h0a1.23,1.23,0,0,1-.91-.39,1.18,1.18,0,0,1-.39-.91v-5.86a5.18,5.18,0,0,1,10.36,0v5.86a1.33,1.33,0,0,1-1.3,1.3h0a1.26,1.26,0,0,1-.92-.39,1.17,1.17,0,0,1-.38-.91v-5.86a2.56,2.56,0,1,0-5.12,0Z" transform="translate(-4.87 -119.63)"/><path class="cls-1" d="M123.62,124.31a1.21,1.21,0,0,1,.91,1.25v0a1.23,1.23,0,0,1-.53,1,1.29,1.29,0,0,1-.75.26,1.22,1.22,0,0,1-.41-.07,3.65,3.65,0,0,0-1.09-.17,3.56,3.56,0,0,0,0,7.11,3.37,3.37,0,0,0,1.09-.18,1.39,1.39,0,0,1,.4-.06,1.29,1.29,0,0,1,.76.26,1.22,1.22,0,0,1,.53,1,1.21,1.21,0,0,1-.91,1.24,6.14,6.14,0,0,1-1.87.28,6.18,6.18,0,0,1,0-12.35A6.14,6.14,0,0,1,123.62,124.31Z" transform="translate(-4.87 -119.63)"/><path class="cls-1" d="M137.8,127.62a1.23,1.23,0,0,1,.13.55,1.42,1.42,0,0,1-.08.45,1.21,1.21,0,0,1-.69.73l-3.94,1.78c-2,.91-3.21,1.45-3.56,1.62a3.06,3.06,0,0,0,2.54,1,3.48,3.48,0,0,0,2.08-.68,3.43,3.43,0,0,0,1.27-1.71,1.22,1.22,0,0,1,1.25-.88,1.28,1.28,0,0,1,1.22,1.73,5.9,5.9,0,0,1-2.22,3,6.16,6.16,0,1,1,2-7.58Zm-5.6-1a3.53,3.53,0,0,0-3.55,3.56v.07l6-2.69A3,3,0,0,0,132.2,126.67Z" transform="translate(-4.87 -119.63)"/><path class="cls-1" d="M142.66,135.07a1.18,1.18,0,0,1-.39.91,1.24,1.24,0,0,1-.91.39h0a1.24,1.24,0,0,1-.91-.39,1.18,1.18,0,0,1-.39-.91v-5.89a5.17,5.17,0,0,1,5.16-5.16,4.53,4.53,0,0,1,3.84,1.7,4.53,4.53,0,0,1,3.84-1.7,5.17,5.17,0,0,1,5.15,5.16v5.89a1.23,1.23,0,0,1-.37.91,1.26,1.26,0,0,1-.92.39h0a1.31,1.31,0,0,1-1.29-1.3v-5.89a2.54,2.54,0,0,0-5.07,0v5.89a1.33,1.33,0,0,1-1.3,1.3h0a1.25,1.25,0,0,1-.92-.39,1.18,1.18,0,0,1-.39-.91v-5.89a2.44,2.44,0,0,0-.73-1.79,2.53,2.53,0,0,0-3.58,0,2.41,2.41,0,0,0-.74,1.79Z" transform="translate(-4.87 -119.63)"/><path class="cls-1" d="M171.62,127.62a1.38,1.38,0,0,1,.13.55,1.2,1.2,0,0,1-.09.45,1.22,1.22,0,0,1-.68.73L167,131.13c-2,.91-3.2,1.45-3.55,1.62a3,3,0,0,0,2.53,1,3.59,3.59,0,0,0,3.36-2.39,1.21,1.21,0,0,1,1.24-.88,1.23,1.23,0,0,1,1.06.55,1.19,1.19,0,0,1,.25.72,1.25,1.25,0,0,1-.09.46,5.9,5.9,0,0,1-2.22,3,6.17,6.17,0,1,1-.23-10.17A6,6,0,0,1,171.62,127.62Zm-5.61-1a3.53,3.53,0,0,0-3.54,3.56v.07l6-2.69A3.06,3.06,0,0,0,166,126.67Z" transform="translate(-4.87 -119.63)"/><path class="cls-1" d="M176.47,135.07a1.21,1.21,0,0,1-.38.91,1.24,1.24,0,0,1-.91.39h0a1.24,1.24,0,0,1-.91-.39,1.21,1.21,0,0,1-.38-.91v-5.86a5.18,5.18,0,0,1,10.36,0v5.86a1.33,1.33,0,0,1-1.3,1.3h0A1.25,1.25,0,0,1,182,136a1.18,1.18,0,0,1-.39-.91v-5.86a2.54,2.54,0,0,0-2.55-2.56,2.54,2.54,0,0,0-2.56,2.56Z" transform="translate(-4.87 -119.63)"/><path class="cls-1" d="M187.68,119.63a1.27,1.27,0,0,1,.91.38,1.23,1.23,0,0,1,.39.92V124h1.6a1.23,1.23,0,0,1,.91.39,1.25,1.25,0,0,1,.39.92v0a1.18,1.18,0,0,1-.39.91,1.23,1.23,0,0,1-.91.39H189V133a.72.72,0,0,0,.75.74h.85a1.23,1.23,0,0,1,.91.39,1.25,1.25,0,0,1,.39.92v0a1.18,1.18,0,0,1-.39.91,1.23,1.23,0,0,1-.91.39h-.85a3.38,3.38,0,0,1-3.38-3.37V120.93a1.23,1.23,0,0,1,.39-.92,1.25,1.25,0,0,1,.91-.38Z" transform="translate(-4.87 -119.63)"/><path class="cls-1" d="M196.7,126.65a1.09,1.09,0,0,0-1.11,1.11,1,1,0,0,0,.62,1,13.16,13.16,0,0,0,1.79.53,4.62,4.62,0,0,1,1.89,1,3.14,3.14,0,0,1,.89,2.41,3.63,3.63,0,0,1-1.09,2.65,3.67,3.67,0,0,1-2.65,1.09h-2.79a1.23,1.23,0,0,1-.91-.39,1.18,1.18,0,0,1-.39-.91v0a1.25,1.25,0,0,1,.39-.92,1.23,1.23,0,0,1,.91-.39h2.9a1,1,0,0,0,.79-.32,1.06,1.06,0,0,0,.33-.79,1,1,0,0,0-.62-.89q-.15-.08-1.8-.54a4.4,4.4,0,0,1-1.89-1,3.3,3.3,0,0,1-.89-2.46,3.76,3.76,0,0,1,3.74-3.74h2a1.33,1.33,0,0,1,1.31,1.31v0a1.18,1.18,0,0,1-.39.91,1.25,1.25,0,0,1-.92.39Z" transform="translate(-4.87 -119.63)"/><path class="cls-1" d="M220.13,125.69a5.42,5.42,0,0,1-1.28,3.55,5.17,5.17,0,0,1-2.95,1.85v4a1.21,1.21,0,0,1-.38.91,1.26,1.26,0,0,1-.92.39h0a1.24,1.24,0,0,1-.91-.39,1.17,1.17,0,0,1-.38-.91v-4a5.17,5.17,0,0,1-2.95-1.85,5.37,5.37,0,0,1-1.29-3.55v-4.76a1.23,1.23,0,0,1,.39-.92,1.27,1.27,0,0,1,.91-.38h0a1.25,1.25,0,0,1,.91.38,1.23,1.23,0,0,1,.39.92v4.76a2.92,2.92,0,1,0,5.84,0v-4.76a1.3,1.3,0,0,1,1.29-1.3h0a1.3,1.3,0,0,1,1.29,1.3Z" transform="translate(-4.87 -119.63)"/><path class="cls-1" d="M233.73,127.62a1.23,1.23,0,0,1,.13.55,1.2,1.2,0,0,1-.09.45,1.22,1.22,0,0,1-.68.73l-4,1.78c-2,.91-3.2,1.45-3.55,1.62a3.06,3.06,0,0,0,2.54,1,3.59,3.59,0,0,0,3.35-2.39,1.21,1.21,0,0,1,1.24-.88,1.22,1.22,0,0,1,1.06.55,1.19,1.19,0,0,1,.25.72,1.25,1.25,0,0,1-.09.46,5.93,5.93,0,0,1-2.21,3,6.14,6.14,0,0,1-8-.64,6.16,6.16,0,0,1,7.72-9.53A6,6,0,0,1,233.73,127.62Zm-5.6-1a3.53,3.53,0,0,0-3.55,3.56v.07l6-2.69A3,3,0,0,0,228.13,126.67Z" transform="translate(-4.87 -119.63)"/><path class="cls-1" d="M237.29,119.63a1.3,1.3,0,0,1,1.29,1.3V124h1.61a1.33,1.33,0,0,1,1.3,1.31v0a1.18,1.18,0,0,1-.39.91,1.24,1.24,0,0,1-.91.39h-1.61V133a.69.69,0,0,0,.22.53.72.72,0,0,0,.53.21h.86a1.33,1.33,0,0,1,1.3,1.31v0a1.18,1.18,0,0,1-.39.91,1.24,1.24,0,0,1-.91.39h-.86A3.36,3.36,0,0,1,236,133V120.93a1.3,1.3,0,0,1,1.29-1.3Z" transform="translate(-4.87 -119.63)"/><path class="cls-1" d="M244.49,136.37a1.44,1.44,0,0,1-1.06-.44,1.42,1.42,0,0,1-.44-1.06,1.4,1.4,0,0,1,.44-1.05,1.44,1.44,0,0,1,1.06-.44,1.47,1.47,0,0,1,1,.44,1.38,1.38,0,0,1,.45,1.05,1.41,1.41,0,0,1-.45,1.06A1.47,1.47,0,0,1,244.49,136.37Zm1.3-9.09-.37,4.87h-1.88l-.37-4.87v-6.35a1.26,1.26,0,0,1,.38-.92,1.29,1.29,0,0,1,.92-.38h0a1.27,1.27,0,0,1,.91.38,1.22,1.22,0,0,1,.38.92Z" transform="translate(-4.87 -119.63)"/><path class="cls-1" d="M249.63,136.37a1.5,1.5,0,0,1-1.5-1.5,1.44,1.44,0,0,1,.44-1.05,1.46,1.46,0,0,1,1.06-.44,1.44,1.44,0,0,1,1.05.44,1.38,1.38,0,0,1,.45,1.05,1.41,1.41,0,0,1-.45,1.06A1.44,1.44,0,0,1,249.63,136.37Zm1.31-9.09-.38,4.87h-1.87l-.38-4.87v-6.35a1.23,1.23,0,0,1,.39-.92,1.27,1.27,0,0,1,.91-.38h0a1.27,1.27,0,0,1,.91.38,1.23,1.23,0,0,1,.39.92Z" transform="translate(-4.87 -119.63)"/></svg>